<!DOCTYPE svg PUBLIC "-//W3C//DTD SVG 1.1//EN" "http://www.w3.org/Graphics/SVG/1.1/DTD/svg11.dtd">
<!-- Uploaded to: SVG Repo, www.svgrepo.com, Transformed by: SVG Repo Mixer Tools -->
<svg xmlns="http://www.w3.org/2000/svg" aria-label="Django Project" role="img" viewBox="0 0 512 512" width="800px" height="800px" fill="#ffffff">
<g id="SVGRepo_bgCarrier" stroke-width="0"/>
<g id="SVGRepo_tracerCarrier" stroke-linecap="round" stroke-linejoin="round"/>
<g id="SVGRepo_iconCarrier">
<rect width="512" height="512" rx="15%" fill="#ffffff"/>
<path fill="#212529" d="M227 101h56v257c-29 5-50 8-73 8-69 0-104-31-104-90 0-57 37-93 96-93 9 0 16 0 25 2zm0 129c-7-2-12-3-19-3-29 0-45 18-45 48s15 46 44 46c6 0 11 0 20-2zm145-44v129c0 45-3 66-13 84-9 18-21 29-46 42l-52-25c25-11 37-22 44-37 8-16 11-34 11-83V186zm-56-85h56v57h-56z"/>
</g>
</svg>